<mxfile host="app.diagrams.net" modified="2021-02-04T02:17:35.182Z" agent="5.0 (Windows NT 10.0; WOW64) AppleWebKit/537.36 (KHTML, like Gecko) Chrome/65.0.3325.181 Safari/537.36" etag="c9O2PIPPzdc5Y_NN57Nl" version="14.2.4" type="github">
  <diagram id="C5RBs43oDa-KdzZeNtuy" name="Page-1">
    <mxGraphModel dx="782" dy="449" grid="1" gridSize="10" guides="1" tooltips="1" connect="1" arrows="1" fold="1" page="1" pageScale="1" pageWidth="827" pageHeight="1169" math="0" shadow="0">
      <root>
        <mxCell id="WIyWlLk6GJQsqaUBKTNV-0" />
        <mxCell id="WIyWlLk6GJQsqaUBKTNV-1" parent="WIyWlLk6GJQsqaUBKTNV-0" />
        <mxCell id="WIyWlLk6GJQsqaUBKTNV-2" value="" style="rounded=0;html=1;jettySize=auto;orthogonalLoop=1;fontSize=11;endArrow=block;endFill=0;endSize=8;strokeWidth=1;shadow=0;labelBackgroundColor=none;edgeStyle=orthogonalEdgeStyle;" parent="WIyWlLk6GJQsqaUBKTNV-1" source="WIyWlLk6GJQsqaUBKTNV-3" target="WIyWlLk6GJQsqaUBKTNV-6" edge="1">
          <mxGeometry relative="1" as="geometry" />
        </mxCell>
        <mxCell id="WIyWlLk6GJQsqaUBKTNV-3" value="下单_SFAUG渠道" style="rounded=1;whiteSpace=wrap;html=1;fontSize=12;glass=0;strokeWidth=1;shadow=0;fillColor=#fff2cc;strokeColor=#d6b656;" parent="WIyWlLk6GJQsqaUBKTNV-1" vertex="1">
          <mxGeometry x="160" y="20" width="120" height="40" as="geometry" />
        </mxCell>
        <mxCell id="WIyWlLk6GJQsqaUBKTNV-4" value="Yes" style="rounded=0;html=1;jettySize=auto;orthogonalLoop=1;fontSize=11;endArrow=block;endFill=0;endSize=8;strokeWidth=1;shadow=0;labelBackgroundColor=none;edgeStyle=orthogonalEdgeStyle;" parent="WIyWlLk6GJQsqaUBKTNV-1" source="WIyWlLk6GJQsqaUBKTNV-6" target="WIyWlLk6GJQsqaUBKTNV-10" edge="1">
          <mxGeometry y="20" relative="1" as="geometry">
            <mxPoint as="offset" />
          </mxGeometry>
        </mxCell>
        <mxCell id="WIyWlLk6GJQsqaUBKTNV-5" value="No" style="edgeStyle=orthogonalEdgeStyle;rounded=0;html=1;jettySize=auto;orthogonalLoop=1;fontSize=11;endArrow=block;endFill=0;endSize=8;strokeWidth=1;shadow=0;labelBackgroundColor=none;" parent="WIyWlLk6GJQsqaUBKTNV-1" source="WIyWlLk6GJQsqaUBKTNV-6" target="WIyWlLk6GJQsqaUBKTNV-7" edge="1">
          <mxGeometry y="10" relative="1" as="geometry">
            <mxPoint as="offset" />
          </mxGeometry>
        </mxCell>
        <mxCell id="WIyWlLk6GJQsqaUBKTNV-6" value="是否澳大利亚" style="rhombus;whiteSpace=wrap;html=1;shadow=0;fontFamily=Helvetica;fontSize=12;align=center;strokeWidth=1;spacing=6;spacingTop=-4;fillColor=#fff2cc;strokeColor=#d6b656;" parent="WIyWlLk6GJQsqaUBKTNV-1" vertex="1">
          <mxGeometry x="170" y="100" width="100" height="80" as="geometry" />
        </mxCell>
        <mxCell id="WIyWlLk6GJQsqaUBKTNV-7" value="不处理" style="rounded=1;whiteSpace=wrap;html=1;fontSize=12;glass=0;strokeWidth=1;shadow=0;fillColor=#d5e8d4;strokeColor=#82b366;" parent="WIyWlLk6GJQsqaUBKTNV-1" vertex="1">
          <mxGeometry x="320" y="120" width="120" height="40" as="geometry" />
        </mxCell>
        <mxCell id="WIyWlLk6GJQsqaUBKTNV-9" value="No" style="edgeStyle=orthogonalEdgeStyle;rounded=0;html=1;jettySize=auto;orthogonalLoop=1;fontSize=11;endArrow=block;endFill=0;endSize=8;strokeWidth=1;shadow=0;labelBackgroundColor=none;" parent="WIyWlLk6GJQsqaUBKTNV-1" source="WIyWlLk6GJQsqaUBKTNV-10" target="WIyWlLk6GJQsqaUBKTNV-12" edge="1">
          <mxGeometry y="10" relative="1" as="geometry">
            <mxPoint as="offset" />
          </mxGeometry>
        </mxCell>
        <mxCell id="AeK5RIC2ORUn5fPmgbvu-15" value="" style="edgeStyle=orthogonalEdgeStyle;rounded=0;orthogonalLoop=1;jettySize=auto;html=1;" edge="1" parent="WIyWlLk6GJQsqaUBKTNV-1" source="WIyWlLk6GJQsqaUBKTNV-10" target="AeK5RIC2ORUn5fPmgbvu-14">
          <mxGeometry relative="1" as="geometry" />
        </mxCell>
        <mxCell id="WIyWlLk6GJQsqaUBKTNV-10" value="产品类型10,29,72" style="rhombus;whiteSpace=wrap;html=1;shadow=0;fontFamily=Helvetica;fontSize=12;align=center;strokeWidth=1;spacing=6;spacingTop=-4;fillColor=#fff2cc;strokeColor=#d6b656;" parent="WIyWlLk6GJQsqaUBKTNV-1" vertex="1">
          <mxGeometry x="170" y="210" width="100" height="80" as="geometry" />
        </mxCell>
        <mxCell id="WIyWlLk6GJQsqaUBKTNV-12" value="不处理" style="rounded=1;whiteSpace=wrap;html=1;fontSize=12;glass=0;strokeWidth=1;shadow=0;fillColor=#d5e8d4;strokeColor=#82b366;" parent="WIyWlLk6GJQsqaUBKTNV-1" vertex="1">
          <mxGeometry x="320" y="230" width="120" height="40" as="geometry" />
        </mxCell>
        <mxCell id="AeK5RIC2ORUn5fPmgbvu-6" value="" style="edgeStyle=orthogonalEdgeStyle;rounded=0;orthogonalLoop=1;jettySize=auto;html=1;" edge="1" parent="WIyWlLk6GJQsqaUBKTNV-1" source="AeK5RIC2ORUn5fPmgbvu-0" target="AeK5RIC2ORUn5fPmgbvu-5">
          <mxGeometry relative="1" as="geometry" />
        </mxCell>
        <mxCell id="AeK5RIC2ORUn5fPmgbvu-40" value="Yes" style="edgeStyle=orthogonalEdgeStyle;rounded=0;orthogonalLoop=1;jettySize=auto;html=1;" edge="1" parent="WIyWlLk6GJQsqaUBKTNV-1" source="AeK5RIC2ORUn5fPmgbvu-0" target="AeK5RIC2ORUn5fPmgbvu-4">
          <mxGeometry relative="1" as="geometry" />
        </mxCell>
        <mxCell id="AeK5RIC2ORUn5fPmgbvu-0" value="邮编表A" style="rhombus;whiteSpace=wrap;html=1;fillColor=#fff2cc;strokeColor=#d6b656;" vertex="1" parent="WIyWlLk6GJQsqaUBKTNV-1">
          <mxGeometry x="180" y="800" width="80" height="80" as="geometry" />
        </mxCell>
        <mxCell id="AeK5RIC2ORUn5fPmgbvu-4" value="设置代理为SFAUG" style="rounded=1;whiteSpace=wrap;html=1;fontSize=12;glass=0;strokeWidth=1;shadow=0;fillColor=#d5e8d4;strokeColor=#82b366;" vertex="1" parent="WIyWlLk6GJQsqaUBKTNV-1">
          <mxGeometry x="320" y="820" width="120" height="40" as="geometry" />
        </mxCell>
        <mxCell id="AeK5RIC2ORUn5fPmgbvu-8" value="Yes" style="edgeStyle=orthogonalEdgeStyle;rounded=0;orthogonalLoop=1;jettySize=auto;html=1;" edge="1" parent="WIyWlLk6GJQsqaUBKTNV-1" source="AeK5RIC2ORUn5fPmgbvu-5" target="AeK5RIC2ORUn5fPmgbvu-7">
          <mxGeometry relative="1" as="geometry" />
        </mxCell>
        <mxCell id="AeK5RIC2ORUn5fPmgbvu-36" value="" style="edgeStyle=orthogonalEdgeStyle;rounded=0;orthogonalLoop=1;jettySize=auto;html=1;" edge="1" parent="WIyWlLk6GJQsqaUBKTNV-1" source="AeK5RIC2ORUn5fPmgbvu-5" target="AeK5RIC2ORUn5fPmgbvu-13">
          <mxGeometry relative="1" as="geometry" />
        </mxCell>
        <mxCell id="AeK5RIC2ORUn5fPmgbvu-5" value="邮编表B" style="rhombus;whiteSpace=wrap;html=1;fillColor=#fff2cc;strokeColor=#d6b656;" vertex="1" parent="WIyWlLk6GJQsqaUBKTNV-1">
          <mxGeometry x="180" y="910" width="80" height="80" as="geometry" />
        </mxCell>
        <mxCell id="AeK5RIC2ORUn5fPmgbvu-7" value="设置代理为PFLG" style="rounded=1;whiteSpace=wrap;html=1;fontSize=12;glass=0;strokeWidth=1;shadow=0;fillColor=#d5e8d4;strokeColor=#82b366;" vertex="1" parent="WIyWlLk6GJQsqaUBKTNV-1">
          <mxGeometry x="320" y="930" width="120" height="40" as="geometry" />
        </mxCell>
        <mxCell id="AeK5RIC2ORUn5fPmgbvu-13" value="设置代理为ST" style="rounded=1;whiteSpace=wrap;html=1;fontSize=12;glass=0;strokeWidth=1;shadow=0;fillColor=#d5e8d4;strokeColor=#82b366;" vertex="1" parent="WIyWlLk6GJQsqaUBKTNV-1">
          <mxGeometry x="160" y="1040" width="120" height="40" as="geometry" />
        </mxCell>
        <mxCell id="AeK5RIC2ORUn5fPmgbvu-17" value="Yes" style="edgeStyle=orthogonalEdgeStyle;rounded=0;orthogonalLoop=1;jettySize=auto;html=1;" edge="1" parent="WIyWlLk6GJQsqaUBKTNV-1" source="AeK5RIC2ORUn5fPmgbvu-14" target="AeK5RIC2ORUn5fPmgbvu-16">
          <mxGeometry relative="1" as="geometry" />
        </mxCell>
        <mxCell id="AeK5RIC2ORUn5fPmgbvu-19" value="" style="edgeStyle=orthogonalEdgeStyle;rounded=0;orthogonalLoop=1;jettySize=auto;html=1;" edge="1" parent="WIyWlLk6GJQsqaUBKTNV-1" source="AeK5RIC2ORUn5fPmgbvu-14" target="AeK5RIC2ORUn5fPmgbvu-18">
          <mxGeometry relative="1" as="geometry" />
        </mxCell>
        <mxCell id="AeK5RIC2ORUn5fPmgbvu-14" value="&lt;font style=&quot;font-size: 9px&quot;&gt;收件方邮编国家等是否为空&lt;/font&gt;" style="rhombus;whiteSpace=wrap;html=1;shadow=0;fontFamily=Helvetica;fontSize=12;align=center;strokeWidth=1;spacing=6;spacingTop=-4;fillColor=#fff2cc;strokeColor=#d6b656;" vertex="1" parent="WIyWlLk6GJQsqaUBKTNV-1">
          <mxGeometry x="170" y="330" width="100" height="80" as="geometry" />
        </mxCell>
        <mxCell id="AeK5RIC2ORUn5fPmgbvu-16" value="&lt;font style=&quot;font-size: 10px&quot;&gt;返回异常信息&lt;/font&gt;" style="rounded=1;whiteSpace=wrap;html=1;fontSize=12;glass=0;strokeWidth=1;shadow=0;fillColor=#d5e8d4;strokeColor=#82b366;" vertex="1" parent="WIyWlLk6GJQsqaUBKTNV-1">
          <mxGeometry x="320" y="350" width="120" height="40" as="geometry" />
        </mxCell>
        <mxCell id="AeK5RIC2ORUn5fPmgbvu-21" value="No" style="edgeStyle=orthogonalEdgeStyle;rounded=0;orthogonalLoop=1;jettySize=auto;html=1;" edge="1" parent="WIyWlLk6GJQsqaUBKTNV-1" source="AeK5RIC2ORUn5fPmgbvu-18" target="AeK5RIC2ORUn5fPmgbvu-20">
          <mxGeometry relative="1" as="geometry" />
        </mxCell>
        <mxCell id="AeK5RIC2ORUn5fPmgbvu-23" value="Yes" style="edgeStyle=orthogonalEdgeStyle;rounded=0;orthogonalLoop=1;jettySize=auto;html=1;" edge="1" parent="WIyWlLk6GJQsqaUBKTNV-1" source="AeK5RIC2ORUn5fPmgbvu-18" target="AeK5RIC2ORUn5fPmgbvu-22">
          <mxGeometry relative="1" as="geometry" />
        </mxCell>
        <mxCell id="AeK5RIC2ORUn5fPmgbvu-18" value="&lt;font style=&quot;font-size: 5px&quot;&gt;根据产品类型，&lt;br style=&quot;font-size: 5px&quot;&gt;地址邮编信息查&lt;br style=&quot;font-size: 5px&quot;&gt;澳大利亚国家邮编产品配置表&lt;br&gt;&lt;/font&gt;" style="rhombus;whiteSpace=wrap;html=1;shadow=0;fontFamily=Helvetica;fontSize=12;align=center;strokeWidth=1;spacing=6;spacingTop=-4;fillColor=#fff2cc;strokeColor=#d6b656;" vertex="1" parent="WIyWlLk6GJQsqaUBKTNV-1">
          <mxGeometry x="170" y="450" width="100" height="90" as="geometry" />
        </mxCell>
        <mxCell id="AeK5RIC2ORUn5fPmgbvu-25" value="" style="edgeStyle=orthogonalEdgeStyle;rounded=0;orthogonalLoop=1;jettySize=auto;html=1;" edge="1" parent="WIyWlLk6GJQsqaUBKTNV-1" source="AeK5RIC2ORUn5fPmgbvu-20" target="AeK5RIC2ORUn5fPmgbvu-24">
          <mxGeometry relative="1" as="geometry" />
        </mxCell>
        <mxCell id="AeK5RIC2ORUn5fPmgbvu-20" value="返回异常信息" style="rounded=1;whiteSpace=wrap;html=1;fontSize=12;glass=0;strokeWidth=1;shadow=0;fillColor=#d5e8d4;strokeColor=#82b366;" vertex="1" parent="WIyWlLk6GJQsqaUBKTNV-1">
          <mxGeometry x="340" y="475" width="120" height="40" as="geometry" />
        </mxCell>
        <mxCell id="AeK5RIC2ORUn5fPmgbvu-31" value="" style="edgeStyle=orthogonalEdgeStyle;rounded=0;orthogonalLoop=1;jettySize=auto;html=1;" edge="1" parent="WIyWlLk6GJQsqaUBKTNV-1" source="AeK5RIC2ORUn5fPmgbvu-22" target="AeK5RIC2ORUn5fPmgbvu-30">
          <mxGeometry relative="1" as="geometry" />
        </mxCell>
        <mxCell id="AeK5RIC2ORUn5fPmgbvu-22" value="澳大利亚国家地区邮编表是否存在" style="rhombus;whiteSpace=wrap;html=1;shadow=0;fontFamily=Helvetica;fontSize=12;align=center;strokeWidth=1;spacing=6;spacingTop=-4;fillColor=#fff2cc;strokeColor=#d6b656;" vertex="1" parent="WIyWlLk6GJQsqaUBKTNV-1">
          <mxGeometry x="170" y="570" width="100" height="80" as="geometry" />
        </mxCell>
        <mxCell id="AeK5RIC2ORUn5fPmgbvu-27" value="expressType=29,72" style="edgeStyle=orthogonalEdgeStyle;rounded=0;orthogonalLoop=1;jettySize=auto;html=1;" edge="1" parent="WIyWlLk6GJQsqaUBKTNV-1" source="AeK5RIC2ORUn5fPmgbvu-24" target="AeK5RIC2ORUn5fPmgbvu-26">
          <mxGeometry relative="1" as="geometry" />
        </mxCell>
        <mxCell id="AeK5RIC2ORUn5fPmgbvu-42" value="" style="edgeStyle=orthogonalEdgeStyle;rounded=0;orthogonalLoop=1;jettySize=auto;html=1;entryX=0;entryY=0.5;entryDx=0;entryDy=0;" edge="1" parent="WIyWlLk6GJQsqaUBKTNV-1" source="AeK5RIC2ORUn5fPmgbvu-24" target="AeK5RIC2ORUn5fPmgbvu-28">
          <mxGeometry x="0.3" y="-5" relative="1" as="geometry">
            <Array as="points">
              <mxPoint x="400" y="635" />
            </Array>
            <mxPoint as="offset" />
          </mxGeometry>
        </mxCell>
        <mxCell id="AeK5RIC2ORUn5fPmgbvu-43" value="expressType=10" style="edgeLabel;html=1;align=center;verticalAlign=middle;resizable=0;points=[];" vertex="1" connectable="0" parent="AeK5RIC2ORUn5fPmgbvu-42">
          <mxGeometry x="-0.07" y="2" relative="1" as="geometry">
            <mxPoint x="17" y="2" as="offset" />
          </mxGeometry>
        </mxCell>
        <mxCell id="AeK5RIC2ORUn5fPmgbvu-24" value="产品类型判断" style="rhombus;whiteSpace=wrap;html=1;rounded=1;shadow=0;strokeWidth=1;glass=0;fillColor=#fff2cc;strokeColor=#d6b656;" vertex="1" parent="WIyWlLk6GJQsqaUBKTNV-1">
          <mxGeometry x="360" y="545" width="80" height="80" as="geometry" />
        </mxCell>
        <mxCell id="AeK5RIC2ORUn5fPmgbvu-28" value="未开通寄送&lt;br&gt;服务信息" style="whiteSpace=wrap;html=1;rounded=1;shadow=0;strokeWidth=1;glass=0;fillColor=#d5e8d4;strokeColor=#82b366;" vertex="1" parent="WIyWlLk6GJQsqaUBKTNV-1">
          <mxGeometry x="570" y="620" width="80" height="30" as="geometry" />
        </mxCell>
        <mxCell id="AeK5RIC2ORUn5fPmgbvu-32" value="Yes" style="edgeStyle=orthogonalEdgeStyle;rounded=0;orthogonalLoop=1;jettySize=auto;html=1;" edge="1" parent="WIyWlLk6GJQsqaUBKTNV-1" source="AeK5RIC2ORUn5fPmgbvu-30" target="AeK5RIC2ORUn5fPmgbvu-0">
          <mxGeometry relative="1" as="geometry" />
        </mxCell>
        <mxCell id="AeK5RIC2ORUn5fPmgbvu-34" value="No" style="edgeStyle=orthogonalEdgeStyle;rounded=0;orthogonalLoop=1;jettySize=auto;html=1;" edge="1" parent="WIyWlLk6GJQsqaUBKTNV-1" source="AeK5RIC2ORUn5fPmgbvu-30">
          <mxGeometry relative="1" as="geometry">
            <mxPoint x="320" y="720" as="targetPoint" />
          </mxGeometry>
        </mxCell>
        <mxCell id="AeK5RIC2ORUn5fPmgbvu-30" value="澳大利亚&lt;br&gt;10|29|72" style="rhombus;whiteSpace=wrap;html=1;shadow=0;fontFamily=Helvetica;fontSize=12;align=center;strokeWidth=1;spacing=6;spacingTop=-4;fillColor=#fff2cc;strokeColor=#d6b656;" vertex="1" parent="WIyWlLk6GJQsqaUBKTNV-1">
          <mxGeometry x="170" y="680" width="100" height="80" as="geometry" />
        </mxCell>
        <mxCell id="AeK5RIC2ORUn5fPmgbvu-37" value="历史逻辑" style="rounded=1;whiteSpace=wrap;html=1;fontSize=12;glass=0;strokeWidth=1;shadow=0;fillColor=#d5e8d4;strokeColor=#82b366;" vertex="1" parent="WIyWlLk6GJQsqaUBKTNV-1">
          <mxGeometry x="320" y="700" width="120" height="40" as="geometry" />
        </mxCell>
        <mxCell id="AeK5RIC2ORUn5fPmgbvu-26" value="转国际小包&lt;br&gt;报错信息" style="whiteSpace=wrap;html=1;rounded=1;shadow=0;strokeWidth=1;glass=0;fillColor=#d5e8d4;strokeColor=#82b366;" vertex="1" parent="WIyWlLk6GJQsqaUBKTNV-1">
          <mxGeometry x="570" y="560" width="80" height="40" as="geometry" />
        </mxCell>
        <mxCell id="AeK5RIC2ORUn5fPmgbvu-46" value="" style="edgeStyle=orthogonalEdgeStyle;rounded=0;orthogonalLoop=1;jettySize=auto;html=1;" edge="1" parent="WIyWlLk6GJQsqaUBKTNV-1" source="AeK5RIC2ORUn5fPmgbvu-44" target="AeK5RIC2ORUn5fPmgbvu-45">
          <mxGeometry relative="1" as="geometry" />
        </mxCell>
        <mxCell id="AeK5RIC2ORUn5fPmgbvu-44" value="称重_SFAUG渠道" style="rounded=1;whiteSpace=wrap;html=1;fontSize=12;glass=0;strokeWidth=1;shadow=0;fillColor=#fff2cc;strokeColor=#d6b656;" vertex="1" parent="WIyWlLk6GJQsqaUBKTNV-1">
          <mxGeometry x="550" y="20" width="120" height="40" as="geometry" />
        </mxCell>
        <mxCell id="AeK5RIC2ORUn5fPmgbvu-48" value="" style="edgeStyle=orthogonalEdgeStyle;rounded=0;orthogonalLoop=1;jettySize=auto;html=1;" edge="1" parent="WIyWlLk6GJQsqaUBKTNV-1" source="AeK5RIC2ORUn5fPmgbvu-45" target="AeK5RIC2ORUn5fPmgbvu-47">
          <mxGeometry relative="1" as="geometry" />
        </mxCell>
        <mxCell id="AeK5RIC2ORUn5fPmgbvu-45" value="采用下单时代理" style="whiteSpace=wrap;html=1;rounded=1;shadow=0;strokeWidth=1;glass=0;fillColor=#fff2cc;strokeColor=#d6b656;" vertex="1" parent="WIyWlLk6GJQsqaUBKTNV-1">
          <mxGeometry x="550" y="130" width="120" height="40" as="geometry" />
        </mxCell>
        <mxCell id="AeK5RIC2ORUn5fPmgbvu-47" value="SFAUG渠道是否需要代理单号标志为false" style="whiteSpace=wrap;html=1;rounded=1;shadow=0;strokeWidth=1;glass=0;fillColor=#fff2cc;strokeColor=#d6b656;" vertex="1" parent="WIyWlLk6GJQsqaUBKTNV-1">
          <mxGeometry x="550" y="240" width="120" height="60" as="geometry" />
        </mxCell>
        <mxCell id="AeK5RIC2ORUn5fPmgbvu-49" value="流向采用历史逻辑处理,根据代理和产品代码查询，存在多个流向查询数据库表（country_area_postcode）" style="text;html=1;strokeColor=#d79b00;fillColor=#ffe6cc;align=center;verticalAlign=middle;whiteSpace=wrap;rounded=0;" vertex="1" parent="WIyWlLk6GJQsqaUBKTNV-1">
          <mxGeometry x="490" y="730" width="250" height="50" as="geometry" />
        </mxCell>
      </root>
    </mxGraphModel>
  </diagram>
</mxfile>
